<?xml version="1.0" encoding="utf-8"?>
<!-- Generator: Adobe Illustrator 24.1.2, SVG Export Plug-In . SVG Version: 6.00 Build 0)  -->
<svg version="1.1"
	 id="svg8" inkscape:version="0.92.4 (5da689c313, 2019-01-14)" sodipodi:docname="logo.svg" xmlns:cc="http://creativecommons.org/ns#" xmlns:dc="http://purl.org/dc/elements/1.1/" xmlns:inkscape="http://www.inkscape.org/namespaces/inkscape" xmlns:rdf="http://www.w3.org/1999/02/22-rdf-syntax-ns#" xmlns:sodipodi="http://sodipodi.sourceforge.net/DTD/sodipodi-0.dtd" xmlns:svg="http://www.w3.org/2000/svg"
	 xmlns="http://www.w3.org/2000/svg" xmlns:xlink="http://www.w3.org/1999/xlink" x="0px" y="0px" viewBox="0 0 3666 1038.6"
	 style="enable-background:new 0 0 3666 1038.6;" xml:space="preserve">
<sodipodi:namedview  bordercolor="#666666" borderopacity="1.0" fit-margin-bottom="0" fit-margin-left="0" fit-margin-right="0" fit-margin-top="0" id="base" inkscape:current-layer="layer1" inkscape:cx="2164.1816" inkscape:cy="764.35771" inkscape:document-units="mm" inkscape:pageopacity="0.0" inkscape:pageshadow="2" inkscape:window-height="745" inkscape:window-maximized="1" inkscape:window-width="1366" inkscape:window-x="-8" inkscape:window-y="-8" inkscape:zoom="0.175" pagecolor="#ffffff" showgrid="false">
	</sodipodi:namedview>
<path d="M333.6,470.6c-2,2.7-4.4,5.1-7.3,7.1c-2.9,2-5.9,3.7-9.2,5s-6.5,2.4-9.8,3c-3.3,0.6-6.3,1-9,1h-40.7
	c-8.3,0-17.4,0.7-27.4,2.2c-10,1.5-20.1,3.3-30.3,5.5c-10.3,2.2-20.5,4.6-30.6,7.4c-10.2,2.7-19.7,5.3-28.5,7.6
	c-14.6,4.2-28.2,7.8-40.9,10.9c-12.7,3.1-23.6,4.6-32.8,4.6c-7.9,0-14.7-1-20.2-3.1c-5.6-2.1-10.1-4.9-13.6-8.5
	c-3.5-3.5-6.1-7.6-7.7-12.1c-1.6-4.5-2.4-9.3-2.4-14.2c0-9.1,1.1-20.2,3.2-33.4c2.2-13.2,4.7-26.9,7.6-41.1c0.7-3.8,2-11.2,3.9-22.2
	c1.9-11,4-23.8,6.5-38.3c2.4-14.6,4.9-30.1,7.6-46.7c2.6-16.6,5.1-32.3,7.4-47.2c2.3-14.9,4.3-28.2,5.9-40c1.6-11.7,2.7-20.1,3.2-25
	c0.9-8.9,1.6-17.4,2-25.4c0.4-8,1.1-15.3,1.9-22c0.8-6.6,1.9-12.6,3.4-17.9c1.4-5.3,3.6-9.8,6.6-13.5c3-3.7,6.9-6.5,11.7-8.5
	c4.9-1.9,11.1-2.9,18.6-2.9c6.8,0,12.4,1.2,16.7,3.5c4.3,2.4,7.7,5.5,10.3,9.3c2.5,3.8,4.3,8.1,5.3,13c1,4.8,1.5,9.7,1.5,14.6
	c0,1.8-0.5,6-1.6,12.7c-1.1,6.6-2.5,14.8-4.3,24.6c-1.8,9.7-3.8,20.6-6.1,32.5c-2.3,11.9-4.5,24.1-6.9,36.4
	c-2.3,12.4-4.5,24.5-6.6,36.3c-2.1,11.8-3.9,22.5-5.5,31.9c-1.4,8.7-3.3,18.2-5.5,28.4c-2.3,10.2-4.3,20.5-6.1,30.8
	c-1.3,7.6-2.6,15.3-3.9,23.1c-1.3,7.7-2.6,15.1-3.6,22c-1.1,6.9-1.9,13.2-2.6,19c-0.6,5.7-0.9,10.4-0.9,14.1c0,2,0.2,3.9,0.5,5.6
	c0.4,1.7,1.1,2.6,2.2,2.6c3.8,0,8.7-0.6,14.8-1.8c6.1-1.2,12.8-2.7,20-4.5c7.2-1.8,14.6-3.8,22.3-6c7.6-2.2,14.7-4.3,21.2-6.3
	c1.6-0.4,4.7-1,9.2-2c4.5-1,9.8-2.1,15.8-3.4c6-1.3,12.4-2.5,19.2-3.8c6.7-1.3,13.1-2.5,19.2-3.5c6-1.1,11.4-2,16.1-2.6
	c4.7-0.6,7.9-1,9.7-1c2.5,0,7.1-0.5,13.8-1.4c6.7-0.9,14.5-1.4,23.5-1.4c14.4,0,24.8,1.8,31.3,5.3c6.5,3.5,9.7,9.8,9.7,18.7
	c0,3.6-0.6,7.3-1.8,11.1C337.9,464.4,336.1,467.7,333.6,470.6z"/>
<path d="M727.7,314c0,3.3-2.4,9.3-7.3,18c-9.4,13.6-19.7,27.2-31.2,40.5c-11.4,13.4-23.6,26.1-36.6,38.1
	c-12.9,12-26.4,23.2-40.5,33.4c-14,10.3-28.2,19.1-42.6,26.6c-14.4,7.5-28.7,13.3-43,17.6c-14.3,4.3-28.3,6.4-41.9,6.4
	c-30.8,0-54.7-8.8-71.9-26.3c-17.2-17.6-25.8-44.1-25.8-79.5c0-14.2,1-28.1,3-41.9c2-13.7,5.3-27.3,9.8-40.7
	c4.6-13.4,10.6-26.5,17.9-39.4c7.4-12.9,16.5-25.5,27.2-37.7c4-4.5,8.6-8.9,13.9-13.1c5.3-4.2,11-7.9,17-11.2
	c6-3.3,12.3-5.9,18.9-7.9c6.6-2,13.1-3,19.6-3c9.5,0,17.8,1.8,24.7,5.5c6.9,3.6,12.6,8.5,17.1,14.6c4.5,6.1,7.8,13.1,10,21
	c2.2,7.9,3.2,16.2,3.2,25c0,16.2-5.9,33-17.8,50.3c-11.9,17.4-28.3,35.2-49.4,53.3c-6.8,5.8-14.7,12.1-23.7,19
	c-9,6.8-19.1,14.5-30.2,23.1c0.4,4.5,1.7,8.8,3.9,12.8c2.2,4,5.3,7.5,9.2,10.5c3.9,3,8.5,5.4,13.9,7.1c5.4,1.7,11.5,2.6,18.3,2.6
	c8.8,0,18.2-1.1,28.1-3.4c9.9-2.3,19.7-5.3,29.4-9.1c9.7-3.8,19.2-8.2,28.3-13.2c9.2-5,17.5-10.2,25.1-15.7
	c13.3-9.6,26.1-20.1,38.4-31.2c12.3-11.2,24.2-22.6,35.7-34.2l14.3-14.5c9.9-8.9,18.3-13.4,25.4-13.4c3.6,0,6.1,1.2,7.4,3.7
	C727.1,310,727.7,312.1,727.7,314z M517.3,263.8c0-4-0.4-7.8-1.2-11.5c-0.8-3.6-2.1-5.9-3.9-6.8c-6.1,0-12.6,2.6-19.6,7.9
	c-6.9,5.3-13.5,12.8-19.8,22.5c-6.3,9.7-11.9,21.5-16.9,35.2c-4.9,13.7-8.6,29-10.9,45.7c8.5-6.4,16.9-13.1,25.5-20.1
	c8.5-7,16.3-14.3,23.2-22c6.9-7.6,12.6-15.7,17-24.1C515.1,282.2,517.3,273.2,517.3,263.8z"/>
<path d="M1072.5,288.3c0,7.6-5.3,16-15.9,25.1c-6.5,5.6-13.6,10.8-21.4,15.4s-15.9,8.6-24.1,12c-8.3,3.4-16.5,6-24.7,7.9
	c-8.2,1.9-15.9,2.9-23.1,2.9c-8.1,0-17.4-1.2-27.8-3.7c-10.4-2.5-20-5.5-28.6-9.1c-1.6,3.3-3.6,7.6-6.1,13.1
	c-2.4,5.5-5,11.3-7.7,17.6c-2.7,6.3-5.4,12.5-8.1,18.6c-2.7,6.1-5.1,11.5-7.3,16.2c-4.3,9.5-8.5,18.4-12.4,26.7
	c-4,8.4-7.8,16.4-11.6,24s-7.5,15.1-11.1,22.2c-3.6,7.2-7.2,14.2-10.8,21.1c-3.6,6.9-7.2,12.6-10.8,16.9c-3.6,4.4-7.1,7.8-10.4,10.2
	c-3.3,2.5-6.5,4.2-9.4,5.2c-3,1-5.6,1.5-8,1.5c-5.8,0-11.2-1.6-16.3-4.8c-5.1-3.2-10.5-8.4-16.1-15.7c0.5-2.9,0.9-5.3,1.1-7.1
	c0.2-1.8,0.3-3.5,0.3-4.9c0-7.1-2.3-17.6-6.9-31.5c-4.6-13.9-11.6-30.8-21.2-50.6c-5-10.5-9.9-21.4-14.6-32.6
	c-4.7-11.2-8.8-22.1-12.4-32.7c-3.6-10.6-6.5-20.6-8.6-30c-2.2-9.4-3.2-17.5-3.2-24.4c0-5.5,0.8-11.2,2.3-17.3
	c1.5-6.1,3.9-11.7,7-16.8c3.1-5.1,7.1-9.3,11.9-12.6c4.8-3.3,10.5-4.9,17.1-4.9c10.4,0,18.3,3,23.7,8.9c5.4,5.9,8.1,13.8,8.1,23.6
	c0,5.3-0.5,10.9-1.6,16.8c-1.1,5.9-1.6,11.2-1.6,16c0,2.5,0.2,6.4,0.5,11.6c0.4,5.2,1,11,2,17.5c1,6.5,2.4,13.3,4.3,20.6
	c1.9,7.3,4.4,14.3,7.4,21c1.4,3.1,3.1,6.8,4.9,11.2c1.8,4.4,3.7,9.1,5.7,14.1c2,5,3.9,10.1,5.7,15.1c1.8,5.1,3.4,9.9,4.9,14.3
	c1.4,4.5,2.6,8.4,3.5,11.9c0.9,3.5,1.3,6,1.3,7.6v0.3c1.1-2.2,2.7-6,4.9-11.3c2.2-5.4,4.6-11.6,7.3-18.8c2.7-7.2,5.6-14.9,8.8-23.2
	c3.1-8.3,6.2-16.6,9.3-24.8c3.1-8.3,5.8-16.1,8.4-23.5c2.5-7.4,4.7-13.7,6.5-19c2.9-8.9,5.7-17.2,8.5-24.8
	c2.8-7.6,6.1-14.3,9.8-20.1c3.8-5.7,8.2-10.2,13.4-13.5c5.1-3.3,11.6-4.9,19.3-4.9c5.2,0,9.7,1.1,13.5,3.4c3.8,2.3,7.5,4.8,11.1,7.5
	c1.8,1.3,4.2,3,7.1,5c3,2.1,6.3,4.1,10.1,6c3.8,1.9,7.8,3.5,12,4.9c4.2,1.4,8.5,2,12.8,2c7.4,0,14.3-0.5,20.9-1.4
	c6.6-0.9,12.8-2.1,18.7-3.7c5.9-1.5,11.6-3.3,17-5.2s10.8-4,16.2-6.1c5.2-2,9.5-3.6,12.9-4.9c3.4-1.3,7.3-1.9,11.6-1.9
	c3.6,0,6.2,1.3,7.7,3.8C1071.7,284.9,1072.5,286.9,1072.5,288.3z"/>
<path d="M1299.9,327.9c0,4.2-1.6,9.5-4.7,16c-3.1,6.5-7.5,13.6-12.9,21.6c-5.5,7.9-12,16.4-19.6,25.4c-7.6,9-15.7,18.2-24.5,27.7
	c-9.5,10.4-19.9,20.6-31,30.6c-11.2,10-23,19.6-35.6,28.9c-12.4,9.1-24.6,16.1-36.7,21.1c-12.1,5-23.5,7.5-34.3,7.5
	c-12.6,0-23.5-2.1-32.8-6.4c-9.3-4.3-17.2-10.1-23.7-17.5c-6.6-7.4-11.9-15.8-16.1-25.4c-4.1-9.6-7.4-19.6-9.8-30.3
	s-4.1-21.4-5-32.3c-0.9-10.9-1.3-21.3-1.3-31.1c0-3.8,0.3-9.6,0.8-17.2c0.5-7.6,1.3-15.7,2.3-24.1c1-8.5,2.1-16.6,3.2-24.6
	c1.2-7.9,2.4-14.1,3.6-18.7c2.7-8.9,8.9-17.4,18.6-25.4c9.3-7.6,19.8-11.5,31.3-11.5c11.7,0,17.5,7.1,17.5,21.3
	c0,6.7-0.6,13.9-1.8,21.4c-1.2,7.6-2.5,15-3.9,22.2c-2.3,13.3-4,25.2-4.9,35.9c-0.9,10.6-1.3,20.1-1.3,28.2c0,9.3,0.5,18.3,1.6,27
	s2.7,16.5,4.7,23.3c2.1,6.8,4.7,12.3,7.8,16.5c3.1,4.2,6.9,6.3,11.2,6.3c5.4,0,11-0.5,16.7-1.5c5.8-1,12.7-3.7,20.8-8
	c15.5-8.5,31.9-20.1,49.4-34.7c6.1-5.1,13.1-11.1,20.9-18.1c7.8-7,15.6-14.2,23.3-21.6c7.7-7.4,15-14.6,21.9-21.7
	c6.8-7.1,12.2-13.2,16.2-18.3c0.5-0.9,1.3-2,2.3-3.4c1-1.4,2.1-2.8,3.4-4.2c1.3-1.5,2.7-2.7,4.2-3.7c1.5-1,3-1.5,4.5-1.5
	c2.9,0,5,0.4,6.3,1.2s2.8,3.3,4.5,7.5C1298.9,321,1299.9,324.8,1299.9,327.9z M1132.1,103.3c0,6-0.9,11.7-2.7,17.1
	c-1.8,5.4-4.4,10.4-7.8,15.1c-6.8,9.6-17.4,14.5-31.6,14.5c-5,0-10.2-0.5-15.4-1.4c-5.2-0.9-9.9-2.2-14-3.8
	c-4.1-1.6-7.6-3.7-10.3-6.3c-2.7-2.5-4-5.5-4-8.7c0-5.6,1.4-11.6,4.3-17.9c2.9-6.3,6.6-12.1,11.2-17.5c4.6-5.4,9.6-9.8,15.1-13.4
	c5.5-3.5,10.7-5.3,15.8-5.3c6.3,0,11.9,0.4,16.7,1.2c4.9,0.8,8.9,2.2,12.3,4.2c3.3,2,5.9,4.8,7.7,8.5
	C1131.2,93.3,1132.1,97.9,1132.1,103.3z"/>
<path d="M1786.7,333.2c0,2.5-0.3,5.6-0.9,9.3c-0.6,3.6-1.6,7.4-2.8,11.3c-1.3,3.9-2.7,7.6-4.2,11.2c-1.5,3.5-3.3,6.4-5.3,8.6h0.3
	c-5.8,6.9-19.3,10.4-40.7,10.4c0-7.8-0.3-14.6-0.9-20.3c-0.6-5.7-1.7-10.3-3.1-13.8c-1.3-2.9-3.5-5.4-6.7-7.4
	c-3.2-2-6.9-3.6-10.9-4.9c-4-1.3-8.1-2.2-12.3-2.9c-4.1-0.6-7.7-1-10.8-1c-7.7,0-15.3,0.2-22.7,0.5c-7.4,0.4-14.6,1.1-21.7,2.2
	c-7.1,1.1-14.3,2.6-21.6,4.6c-7.3,2-14.7,4.5-22.3,7.6c-5.4,2.2-11.1,4.9-17.1,8.2c-6,3.3-11.6,7-16.9,11.1
	c-5.2,4.1-9.7,8.6-13.4,13.4c-3.7,4.8-6,10-6.9,15.4l0.3-0.5c0,4.4,1.4,9.2,4.3,14.6c2.9,5.4,6.8,10.6,11.7,15.8
	c4.9,5.2,10.7,9.9,17.1,14.2c6.5,4.3,13.3,7.4,20.5,9.4c0.5,0.2,2.1,0.7,4.6,1.6c2.5,0.9,5.6,2,9.2,3.1c3.6,1.2,7.4,2.5,11.5,4
	c4,1.5,7.8,2.8,11.3,4c3.5,1.2,6.5,2.2,8.9,3c2.4,0.8,3.8,1.3,4.2,1.5c41.7,10.7,72.7,23.7,92.8,38.7c20.1,15.1,30.2,33.7,30.2,55.7
	c0,7.1-1.5,14.1-4.6,21.1c-3.1,7-6.9,13.7-11.6,20.1c-4.7,6.4-9.8,12.2-15.2,17.6c-5.5,5.4-10.7,9.9-15.5,13.5l0.3-0.3
	c-5.2,4.2-11.1,8.5-17.7,12.8c-6.6,4.4-13.6,8.6-21.2,12.8c-7.6,4.2-15.4,8.1-23.5,11.7c-8.1,3.6-16.4,6.8-24.8,9.6
	c-7.9,2.5-16.2,5-25,7.2c-8.7,2.3-17.4,4.2-26,5.9c-8.6,1.6-17,2.9-25,3.8c-8,0.9-15.2,1.4-21.7,1.4c-3.4,0-7.6-0.4-12.5-1.2
	c-4.9-0.8-10.2-2-15.6-3.4c-5.5-1.5-11-3.2-16.5-5.2c-5.5-2-10.4-4.3-14.7-6.8c-4.3-2.5-7.8-5.3-10.5-8.2c-2.7-2.9-4-6-4-9.3
	c0-2.9,0.5-6.5,1.6-10.6c1.1-4.2,2.7-8.2,4.7-12.1c2.1-3.9,4.5-7.3,7.3-10.1c2.8-2.8,5.8-4.2,9-4.2c4.5,0,8.7,0.5,12.7,1.6
	c4,1.1,8.4,2.3,13.4,3.7c4.9,1.4,10.7,2.6,17.3,3.8c6.6,1.2,14.7,1.8,24.4,1.8c9.7,0,19.8-1,30.3-3.1c10.5-2.1,20.9-4.9,31.2-8.5
	c10.3-3.5,20.1-7.6,29.4-12.1c9.3-4.5,17.8-9.3,25.4-14.2c3.2-2.2,6.8-4.7,10.7-7.5c3.9-2.8,7.5-5.9,10.8-9.3
	c3.3-3.4,6.1-6.9,8.4-10.5c2.2-3.6,3.4-7.4,3.4-11.2c0-4.4-3.2-8.5-9.7-12.6v0.3c-9.5-5.8-19-10.3-28.3-13.4
	c-9.4-3.1-17.5-5.6-24.5-7.6c-19.8-5.1-43.9-13.2-72.3-24.3h0.3c-11.9-4.7-23.4-10.8-34.5-18.3c-11.2-7.5-20.8-15.3-28.9-23.5
	c-18-20.2-27-43.5-27-69.9c0-10.4,2.9-20.5,8.6-30.3c5.8-9.8,13.6-19.1,23.5-27.7c9.9-8.6,21.4-16.6,34.4-23.9
	c13-7.3,26.9-13.5,41.7-18.7c14.7-5.2,29.8-9.2,45.2-12.1c15.4-2.9,30.3-4.4,44.6-4.4c4.5,0,10.1,0.3,16.9,1
	c6.7,0.6,13.7,1.5,20.8,2.7c7.1,1.2,13.9,2.6,20.4,4.4c6.5,1.7,11.6,3.7,15.4,5.9h-0.3c10.4,5.6,18.7,12.4,24.7,20.2
	C1783.7,318.1,1786.7,325.7,1786.7,333.2z"/>
<path d="M1907.3,610.7c0,4-0.9,10.3-2.7,18.8c-0.5,2.5-2.4,5.7-5.7,9.6c-3.2,3.8-8,8.3-14.3,13.4c-5.8,4.7-11,8.3-15.8,10.6
	c-4.8,2.4-8.8,3.5-12,3.5c-6.8,0-12.3-0.8-16.5-2.3c-4.1-1.5-7.3-3.9-9.6-7.1c-2.3-3.2-3.7-7.3-4.5-12.4c-0.7-5.1-1.1-11.2-1.1-18.3
	c0-5.1,0-9.4,0.1-12.8c0.1-3.5,0.4-6.5,0.9-9c1.6-12.6,17.4-18.8,47.2-18.8c7.2,0,12.9,0.9,17.1,2.7c4.2,1.8,8,4.7,11.5,8.7
	C1905.6,600.8,1907.3,605.3,1907.3,610.7z"/>
<path d="M2458.8,581.7c0,2.9-0.7,7-2.2,12.1c-1.4,5.2-3.3,10.7-5.5,16.6c-2.3,5.9-4.7,11.6-7.4,17.2c-2.7,5.6-5.3,10.1-7.8,13.8
	c-6.1,8.7-14.5,17.9-25.2,27.6c-10.7,9.6-23.3,19.5-37.9,29.5c-13.5,9.3-27.4,18.2-41.8,26.9c-14.4,8.6-28.6,16.5-42.6,23.6
	c-16.9,8.7-34.4,17-52.5,24.7c-18.1,7.7-35.8,14.4-53.3,20.1v13.1c0,2.4,0.1,6.2,0.4,11.5c0.3,5.3,0.6,11.4,1.1,18.3
	c0.4,6.9,0.9,14.3,1.3,22.1c0.4,7.8,0.9,15.5,1.3,22.9c0.4,7.5,0.8,14.4,1.1,20.7c0.3,6.4,0.4,11.6,0.4,15.6
	c0,9.3-2.9,16.5-8.8,21.7c-5.8,5.2-13.6,7.8-23.3,7.8c-25.9,0-38.8-44.3-38.8-132.9c0-7.8,0.2-15.7,0.7-23.7
	c0.4-8,1.2-16.6,2.2-25.8c1-9.2,2.2-19.1,3.6-29.6c1.4-10.5,3.1-22.4,5.1-35.5c1.6-10.9,3.3-21.4,5-31.4c1.7-10,3.6-19.8,5.8-29.3
	c2.2-9.6,4.7-19,7.7-28.2c3-9.3,6.5-18.6,10.7-28.1c-5.8,1.6-11.6,3.5-17.7,5.6c-6,2.1-12.4,4.2-19,6.4c-2,0.9-4,1.6-5.9,2.2
	c-2,0.5-4.1,0.8-6.5,0.8c-6.8,0-12.5-1.9-16.9-5.7c-4.4-3.8-6.6-8.8-6.6-15c0-7.5,1.5-14,4.6-19.5c3.1-5.5,8-10.5,14.7-14.9
	c6.7-4.4,15.4-8.2,25.9-11.6c10.5-3.4,23.3-6.6,38.4-9.7c8.6-1.8,18-3.6,28.1-5.3c10.1-1.7,20.2-3.3,30.5-4.6
	c10.3-1.4,20.2-2.5,29.9-3.4c9.7-0.9,18.5-1.4,26.4-1.4c9.5,0,18.7,0.1,27.7,0.3c8.9,0.2,17.7,0.6,26.3,1.4c8.6,0.7,17.2,1.7,25.8,3
	c8.5,1.3,17.2,3,26,5.2c19.8,4.9,35.6,12.2,47.5,21.8C2451.6,549.5,2458.8,564,2458.8,581.7z M2304.7,560.4
	c-14.2,0-29.7,0.9-46.5,2.6c-16.8,1.7-33.4,4-49.8,6.7c5.4,5.5,8.1,12.8,8.1,22.1c0,1.1-0.7,4-2,8.6c-1.3,4.6-2.8,9.7-4.5,15.1
	s-3.2,10.6-4.7,15.3c-1.5,4.7-2.6,7.6-3.1,8.7c-0.9,2.4-1.8,5.3-2.6,8.9c-0.8,3.5-1.6,7.4-2.4,11.6c-0.8,4.2-1.6,8.5-2.3,13
	c-0.7,4.5-1.4,8.8-2.2,13c-1.1,5.6-1.9,10.6-2.6,14.9c-0.6,4.3-1.1,8.1-1.5,11.5c-0.4,3.4-0.7,6.6-0.9,9.7c-0.3,3.1-0.5,6.3-0.7,9.6
	c5.9-2.5,12.7-5.4,20.2-8.6c7.6-3.2,15.2-6.5,23.1-9.8c7.8-3.4,15.5-6.7,22.9-10.1c7.5-3.4,14.1-6.4,19.8-9.1
	c3.1-1.6,6.5-3.5,10.4-5.5c3.9-2,7.8-4.1,11.9-6.3c4-2.2,8.1-4.4,12.3-6.7c4.1-2.3,7.9-4.5,11.3-6.7c8.6-5.3,17.6-11.5,26.8-18.7
	c9.3-7.2,17.8-14.9,25.5-23.1c7.7-8.2,14.1-16.5,19-25c4.9-8.5,7.4-16.4,7.4-23.9c0-3.8-4.6-6.9-13.8-9.3c-13.5-3.6-27.3-6-41.4-7
	C2328.5,560.9,2315.9,560.4,2304.7,560.4z"/>
<path d="M2857.8,686.7c0,3.3-0.7,6.7-2,10.4c-1.3,3.6-3.2,7.1-5.5,10.5c-2.3,3.4-5,6.5-8,9.4c-3,2.9-6,5.4-9,7.4
	c-6.5,4.4-15.9,8.2-28.2,11.5c-12.3,3.3-27.2,4.9-44.6,4.9c-5,0-10.4-0.4-16.1-1.1c-5.7-0.7-11.4-1.7-17.3-3
	c-5.8-1.3-11.6-2.9-17.3-4.8c-5.7-1.9-11.1-4-16.3-6.4c1.1,1.6,2,3.9,2.7,6.7c0.7,2.8,1.2,5.8,1.5,8.9c0.3,3.1,0.4,6,0.5,8.9
	c0.1,2.8,0.1,5,0.1,6.7c0,11.6-2,23.2-6.1,34.8c-4,11.6-9.4,22.6-16.1,33.2c-6.7,10.6-14.2,20.3-22.7,29.3
	c-8.5,9-17.1,16.8-25.9,23.3c-7,5.3-14.8,9.8-23.3,13.6c-8.5,3.8-17.5,7-27,9.6c-9.4,2.5-19.2,4.5-29.1,5.7
	c-10,1.3-20.1,1.9-30.4,1.9c-8.5,0-16.5-2.1-24.3-6.3c-7.7-4.2-14.5-9.6-20.4-16.2c-5.8-6.6-10.5-14.1-14-22.5
	c-3.5-8.4-5.3-16.6-5.3-24.8c0-14.6,1.9-28.6,5.8-42c3.9-13.5,9-26.5,15.5-39c6.5-12.6,14-24.9,22.7-37
	c8.6-12.1,17.7-24.1,27.2-35.9c5.6-6.9,12-13.6,19.2-20.2c7.2-6.5,14.8-12.4,22.8-17.6c8-5.2,16.1-9.3,24.3-12.4
	c8.2-3.1,16.1-4.6,23.6-4.6c6.3,0,11.7,0.7,16.3,2.2c4.6,1.5,8.8,3.5,12.7,6.1c3.9,2.6,7.6,5.9,11.2,9.7c3.6,3.8,7.4,8.1,11.3,12.8
	l5.7,6.3c1.4,1.5,5.3,3.6,11.7,6.5c6.4,2.9,14,5.8,22.8,8.6c8.8,2.8,18.1,5.3,27.8,7.5c9.7,2.2,18.5,3.3,26.4,3.3
	c8.1,0,15.7-0.1,22.9-0.3c7.2-0.2,14.4-0.9,21.7-2c7.3-1.2,14.9-3,22.9-5.5c8-2.5,16.9-5.9,26.6-10.2c0.9,1.6,1.6,3.7,2,6.3
	C2857.5,683.3,2857.8,685.3,2857.8,686.7z M2648.4,748.1c0-4.5-0.2-9.3-0.7-14.2c-0.5-4.9-1.4-9.5-2.8-13.8c-1.4-4.3-3.4-8-5.9-11.2
	c-2.5-3.2-5.8-5.3-10-6.4c-6.3-1.6-11.4-3.4-15.4-5.3c-4-1.9-7.1-3.7-9.4-5.3c-2.3-1.6-4-3-4.9-4.1c-0.9-1.1-1.5-1.6-1.9-1.6
	c-1.4,0-3.5,1.2-6.1,3.7c-2.6,2.5-5.5,5.6-8.6,9.4c-3.1,3.8-6.4,7.9-9.7,12.3c-3.3,4.4-6.5,8.5-9.6,12.3c-3.8,4.7-7.3,9.3-10.7,13.8
	c-3.3,4.5-6.6,9.1-9.7,13.9c-3.1,4.8-6.3,9.9-9.3,15.1c-3.1,5.3-6.2,11.1-9.4,17.5c-2.9,5.8-5,13-6.5,21.4
	c-1.4,8.5-2.2,16.4-2.2,23.9c0,3.1,0.4,6.2,1.1,9.4c0.7,3.2,1.8,6.1,3.2,8.6c1.4,2.5,3.3,4.6,5.7,6.3c2.3,1.6,5.2,2.5,8.6,2.5
	c8.3,0,15.2-0.4,20.8-1.2c5.6-0.8,10.8-2.3,15.6-4.4c4.9-2.1,9.8-4.9,14.7-8.5c4.9-3.5,10.9-8,17.9-13.2c3.2-2.5,6.5-5.5,9.7-8.9
	c3.2-3.4,6.5-7,9.7-10.9c3.2-3.9,6.4-8,9.4-12.3c3.1-4.3,5.8-8.4,8.4-12.4c1.4-2.2,2.7-5,3.6-8.6c1-3.5,1.8-7.1,2.4-10.8
	c0.6-3.6,1.1-7,1.3-10.1c0.3-3.1,0.4-5.3,0.4-6.5V748.1z"/>
<path d="M2851.3,667.3c2.9,0,5.7,0.6,8.5,1.8c2.8,1.2,5.3,2.6,7.7,4.4c2.3,1.7,4.4,3.5,6.2,5.5c1.8,1.9,3.1,3.6,4,5
	c1.4,2.4,2.5,4.6,3.1,6.8c0.6,2.2,0.9,5,0.9,8.5c0,4.4-0.2,8.7-0.7,13.1c-0.5,4.4-1,7.9-1.8,10.6c-1.1,4.5-2.3,9.8-3.8,15.7
	c-1.4,5.9-2.8,12.2-4.2,18.8c-1.3,6.6-2.6,13.6-3.8,21c-1.2,7.4-2,14.9-2.6,22.5c2.9-7.3,6.4-15.9,10.7-25.8
	c4.2-9.9,8.9-20.1,14.2-30.4c5.2-10.4,10.7-20.4,16.6-30.2c5.8-9.7,11.7-18.1,17.7-25.2c4.3-5.1,9.1-10,14.4-14.7
	c5.3-4.7,10.9-9,16.9-12.7c5.9-3.7,12.2-6.7,18.7-8.9c6.6-2.2,13.4-3.3,20.4-3.3c5.4,0,10.7,0.7,15.8,2.2c5.1,1.5,9.8,3.6,13.9,6.4
	c4.1,2.8,7.5,6.2,10,10.2c2.5,4,3.8,8.5,3.8,13.4c0,2-0.6,4.6-1.8,7.9c-1.2,3.3-2.8,6.5-4.9,9.6c-2.1,3.1-4.6,5.8-7.6,8
	c-3,2.3-6.3,3.4-10.1,3.4c-2.2,0-5.1-0.1-8.8-0.3c-3.7-0.2-7.2-0.3-10.7-0.3c-7.4,0-14.6,2.2-21.7,6.7c-7.1,4.5-14.1,11-20.9,19.5
	c-4.3,5.5-9,12.5-14.2,21c-5.1,8.6-10.2,18-15.2,28.2c-5,10.3-10,20.9-14.8,31.9c-4.9,11-9.2,21.6-12.9,31.8
	c-2,5.1-3.9,10.7-5.8,16.8c-1.9,6.1-3.6,12.3-5.3,18.6s-3.1,12.6-4.5,19.1c-1.3,6.5-2.6,12.7-3.6,18.7c-0.2,2-1.6,4.1-4.2,6.3
	c-2.6,2.2-5.7,4.2-9.2,6c-3.5,1.8-6.9,3.4-10.3,4.6c-3.3,1.3-5.7,2-7.1,2.2c-6.8,0-12.5-2.3-17-6.8c-4.5-4.5-8.1-10.2-10.7-16.9
	c-2.6-6.7-4.4-14-5.4-21.8c-1-7.8-1.5-15-1.5-21.6c0-5.3,0.1-11.7,0.3-19.2c0.2-7.5,0.4-15.6,0.8-24c0.4-8.5,0.7-17.1,0.9-25.8
	c0.3-8.7,0.6-17,0.9-24.7c0.4-7.7,0.6-14.7,0.8-20.9c0.2-6.2,0.3-10.9,0.3-14.2V714c0-2.2,0-4.3,0-6.4c0-2.1,0.2-4.1,0.5-6.1
	c0.5-5.1,1.9-9.7,4.2-13.9c2.2-4.2,5.1-7.8,8.5-10.8c3.4-3,7.2-5.3,11.3-7C2842.8,668.2,2847,667.3,2851.3,667.3z M3362.8,676.9
	c0,4-0.5,7.4-1.6,10.2c-1.1,2.8-2.6,5.2-4.5,7.2c-1.9,2-4,3.7-6.5,5.2c-2.4,1.5-5.1,2.9-8,4.4c-7.9,4-16.7,7.4-26.3,10.2
	c-9.6,2.8-19.4,5.2-29.3,7.1c-9.9,1.9-19.5,3.5-28.9,4.9c-9.4,1.4-17.7,2.6-25.1,3.7c-5,0.7-10.3,1.4-15.6,1.9
	c-5.4,0.5-10.6,1-15.5,1.5c-4.9,0.5-9.6,1-14,1.5c-4.4,0.5-8.2,1.2-11.5,1.9c-3.6,15.3-7,29.8-10.3,43.7c-3.2,13.8-6.1,27-8.6,39.6
	c-0.7,3.3-1.6,8.2-2.7,14.7c-1.1,6.5-2.1,13.3-3.1,20.3c-1,7-1.8,13.6-2.6,19.9c-0.7,6.3-1.1,10.8-1.1,13.5c0,5.8,0.9,10.2,2.8,13.2
	c1.9,3,3.9,5.6,6.1,7.9c2.2,2.3,4.2,4.8,6.1,7.5c1.9,2.7,2.8,6.8,2.8,12.3c0,3.6-1.3,7-3.8,10.2c-2.5,3.2-5.7,6-9.4,8.6
	c-3.8,2.5-7.9,4.5-12.3,6c-4.4,1.5-8.5,2.2-12.3,2.2c-6.5,0-12.3-1.7-17.5-5.2c-5.2-3.5-9.7-7.9-13.5-13.4
	c-3.8-5.5-6.7-11.6-8.6-18.6c-2-6.9-3-13.9-3-21c0-12,1.2-24.9,3.6-38.7c2.4-13.8,5.2-28,8.2-42.6c1.3-6,2.7-12.8,4.5-20.5
	c1.7-7.6,3.3-15.1,4.9-22.2c1.5-7.2,2.8-13.7,3.9-19.6c1.1-5.9,1.6-10.2,1.6-13c-4.1,0.4-8.1,0.8-11.7,1.2
	c-3.7,0.5-7.6,0.7-11.7,0.7c-4.7,0-8.8-0.9-12.3-2.6c-3.5-1.7-6.5-4.1-8.9-7.1c-2.4-3-4.3-6.5-5.5-10.4c-1.3-3.9-1.9-8-1.9-12.4
	c0-3.6,1.1-7,3.4-10c2.2-3,5.1-5.6,8.6-7.8c3.5-2.2,7.3-3.9,11.5-5.2c4.1-1.3,8.1-1.9,11.9-1.9c3.2,0,7.3-0.3,12.3-0.8
	c4.9-0.5,9.5-0.8,13.6-0.8c0.9,0,2-1.8,3.4-5.3c1.3-3.5,2.8-8,4.3-13.5c1.5-5.5,3.1-11.5,4.6-18.1c1.5-6.6,3-13.1,4.3-19.2
	c1.3-6.2,2.5-11.7,3.5-16.6c1-4.9,1.8-8.4,2.3-10.4c2.9-8.5,5.5-17.7,7.8-27.6c2.3-9.8,5.3-18.9,8.9-27.3
	c3.6-8.4,8.2-15.3,13.8-20.7c5.6-5.5,13-8.2,22.4-8.2c4.3,0,7.8,0.4,10.4,1.1c2.6,0.7,4.7,2.1,6.2,4.2c1.5,2.1,2.6,5,3.1,8.9
	c0.5,3.8,0.8,8.8,0.8,15c0,4.5-0.5,9.6-1.6,15.3c-1.1,5.6-2.6,11.6-4.6,17.7c-4.1,13.3-7.8,25.8-10.9,37.5
	c-3.1,11.7-5.8,22.1-8,31.1s-3.8,16.3-4.9,22c-1.1,5.6-1.6,9.2-1.6,10.6c7.2,0,14.2-0.2,21-0.5c6.8-0.4,13.8-0.8,21-1.4
	c7.2-0.5,14.7-1.2,22.4-2c7.7-0.8,16.1-1.8,25.1-2.9c10.4-1.3,19.4-2.6,26.8-4c7.5-1.4,14-2.6,19.7-3.7c5.7-1.1,10.8-2,15.4-2.7
	c4.6-0.7,9.1-1.1,13.6-1.1c2,0,3.7,0.1,5.3,0.3c1.5,0.2,2.8,0.8,3.9,1.8c1.1,1,1.9,2.5,2.4,4.4S3362.8,673.6,3362.8,676.9z"/>
<path d="M3666,686.7c0,3.3-0.7,6.7-2,10.4c-1.3,3.6-3.2,7.1-5.5,10.5c-2.3,3.4-5,6.5-8,9.4c-3,2.9-6,5.4-9,7.4
	c-6.5,4.4-15.9,8.2-28.2,11.5c-12.3,3.3-27.2,4.9-44.6,4.9c-5,0-10.4-0.4-16.1-1.1c-5.7-0.7-11.4-1.7-17.3-3
	c-5.8-1.3-11.6-2.9-17.3-4.8c-5.7-1.9-11.1-4-16.3-6.4c1.1,1.6,2,3.9,2.7,6.7c0.7,2.8,1.2,5.8,1.5,8.9c0.3,3.1,0.4,6,0.5,8.9
	c0.1,2.8,0.1,5,0.1,6.7c0,11.6-2,23.2-6.1,34.8c-4,11.6-9.4,22.6-16.1,33.2c-6.7,10.6-14.2,20.3-22.7,29.3
	c-8.5,9-17.1,16.8-25.9,23.3c-7,5.3-14.8,9.8-23.3,13.6c-8.5,3.8-17.5,7-27,9.6c-9.4,2.5-19.2,4.5-29.1,5.7
	c-10,1.3-20.1,1.9-30.4,1.9c-8.5,0-16.5-2.1-24.3-6.3c-7.7-4.2-14.5-9.6-20.4-16.2c-5.8-6.6-10.5-14.1-14-22.5
	c-3.5-8.4-5.3-16.6-5.3-24.8c0-14.6,1.9-28.6,5.8-42c3.9-13.5,9-26.5,15.5-39c6.5-12.6,14-24.9,22.7-37
	c8.6-12.1,17.7-24.1,27.2-35.9c5.6-6.9,12-13.6,19.2-20.2c7.2-6.5,14.8-12.4,22.8-17.6c8-5.2,16.1-9.3,24.3-12.4
	c8.2-3.1,16.1-4.6,23.6-4.6c6.3,0,11.7,0.7,16.3,2.2c4.6,1.5,8.8,3.5,12.7,6.1c3.9,2.6,7.6,5.9,11.2,9.7c3.6,3.8,7.4,8.1,11.3,12.8
	l5.7,6.3c1.4,1.5,5.3,3.6,11.7,6.5c6.4,2.9,14,5.8,22.8,8.6c8.8,2.8,18.1,5.3,27.8,7.5c9.7,2.2,18.5,3.3,26.4,3.3
	c8.1,0,15.7-0.1,22.9-0.3c7.2-0.2,14.4-0.9,21.7-2c7.3-1.2,14.9-3,22.9-5.5c8-2.5,16.9-5.9,26.6-10.2c0.9,1.6,1.6,3.7,2,6.3
	C3665.8,683.3,3666,685.3,3666,686.7z M3456.7,748.1c0-4.5-0.2-9.3-0.7-14.2c-0.5-4.9-1.4-9.5-2.8-13.8c-1.4-4.3-3.4-8-5.9-11.2
	c-2.5-3.2-5.8-5.3-10-6.4c-6.3-1.6-11.4-3.4-15.4-5.3c-4-1.9-7.1-3.7-9.4-5.3c-2.3-1.6-4-3-4.9-4.1c-0.9-1.1-1.5-1.6-1.9-1.6
	c-1.4,0-3.5,1.2-6.1,3.7c-2.6,2.5-5.5,5.6-8.6,9.4c-3.1,3.8-6.4,7.9-9.7,12.3c-3.3,4.4-6.5,8.5-9.6,12.3c-3.8,4.7-7.3,9.3-10.7,13.8
	c-3.3,4.5-6.6,9.1-9.7,13.9c-3.1,4.8-6.3,9.9-9.3,15.1c-3.1,5.3-6.2,11.1-9.4,17.5c-2.9,5.8-5,13-6.5,21.4
	c-1.4,8.5-2.2,16.4-2.2,23.9c0,3.1,0.4,6.2,1.1,9.4c0.7,3.2,1.8,6.1,3.2,8.6c1.4,2.5,3.3,4.6,5.7,6.3c2.3,1.6,5.2,2.5,8.6,2.5
	c8.3,0,15.2-0.4,20.8-1.2c5.6-0.8,10.8-2.3,15.6-4.4c4.9-2.1,9.8-4.9,14.7-8.5c4.9-3.5,10.9-8,17.9-13.2c3.2-2.5,6.5-5.5,9.7-8.9
	c3.2-3.4,6.5-7,9.7-10.9c3.2-3.9,6.4-8,9.4-12.3c3.1-4.3,5.8-8.4,8.4-12.4c1.4-2.2,2.7-5,3.6-8.6c1-3.5,1.8-7.1,2.4-10.8
	c0.6-3.6,1.1-7,1.3-10.1c0.3-3.1,0.4-5.3,0.4-6.5V748.1z"/>
</svg>
